# xmcd
# 
# Track frame offsets:
#     151
#     24880
#     48133
#     77998
#     102443
#     125544
#     142535
#     168566
#     197277
#     223132
# 
# Disc length: 3297
# 
# Revision: 4
# Processed by: cddbd v1.5.2PL0 Copyright (c) Steve Scherf et al.
# Submitted via: fre:ac v1.0.17
# 
DISCID=7c0cdf0a
DTITLE=ASIA Records - SHEI-PA National Park Music
DYEAR=2001
DGENRE=Meditative
TTITLE0=Hayata
TTITLE1=Snow Peak
TTITLE2=Green Pond
TTITLE3=Melting Snow
TTITLE4=Yen-Sheng Waterfall
TTITLE5=Spring River
TTITLE6=Chi-Jia-Wan Stream
TTITLE7=To Foster
TTITLE8=Dark Forest
TTITLE9=Nirvana
EXTD=YEAR: 2001
EXTT0=
EXTT1=
EXTT2=
EXTT3=
EXTT4=
EXTT5=
EXTT6=
EXTT7=
EXTT8=
EXTT9=
PLAYORDER=
